<svg xmlns="http://www.w3.org/2000/svg" xmlns:xlink="http://www.w3.org/1999/xlink" width="500" zoomAndPan="magnify" viewBox="0 0 375 374.999991" height="500" preserveAspectRatio="xMidYMid meet" version="1.0"><defs><clipPath id="id1"><path d="M 70 83.324219 L 229.628906 83.324219 L 229.628906 291.824219 L 70 291.824219 Z M 70 83.324219 " clip-rule="nonzero"/></clipPath><clipPath id="id2"><path d="M 203 106 L 304.703125 106 L 304.703125 289 L 203 289 Z M 203 106 " clip-rule="nonzero"/></clipPath></defs><rect x="-37.5" width="450" fill="#ffffff" y="-37.499999" height="449.999989" fill-opacity="1"/><rect x="-37.5" width="450" fill="#ffffff" y="-37.499999" height="449.999989" fill-opacity="1"/><rect x="-37.5" width="450" fill="#ffffff" y="-37.499999" height="449.999989" fill-opacity="1"/><path fill="#939593" d="M 187.5 370.882812 C 86.386719 370.882812 4.125 288.613281 4.125 187.5 C 4.125 86.382812 86.386719 4.121094 187.5 4.121094 C 288.613281 4.121094 370.878906 86.382812 370.878906 187.5 C 370.878906 288.613281 288.613281 370.882812 187.5 370.882812 Z M 187.5 0 C 84.113281 0 0 84.113281 0 187.5 C 0 290.886719 84.113281 375 187.5 375 C 290.886719 375 375 290.886719 375 187.5 C 375 84.113281 290.886719 0 187.5 0 " fill-opacity="1" fill-rule="nonzero"/><g clip-path="url(#id1)"><path fill="#dc8b27" d="M 188.347656 254.398438 C 185.105469 254.398438 182.945312 256.566406 182.945312 259.835938 L 182.945312 279.375 L 156.382812 279.375 L 156.382812 258.210938 C 156.382812 257.667969 156.382812 257.667969 155.839844 257.128906 C 155.839844 256.566406 155.300781 256.566406 155.300781 256.023438 C 155.300781 255.484375 154.761719 255.484375 154.761719 255.484375 C 154.761719 255.484375 154.21875 254.941406 153.679688 254.941406 C 153.140625 254.941406 153.140625 254.398438 152.597656 254.398438 L 152.039062 254.398438 C 139.589844 251.148438 128.199219 244.628906 118.992188 235.402344 L 118.449219 235.402344 C 117.910156 235.402344 117.910156 234.859375 117.371094 234.859375 C 116.828125 234.859375 116.828125 234.296875 116.289062 234.296875 L 113.023438 234.296875 C 112.484375 234.296875 112.484375 234.296875 111.945312 234.859375 L 111.402344 234.859375 L 94.609375 244.628906 L 81.058594 221.28125 L 97.851562 211.488281 L 98.394531 211.488281 C 98.933594 211.488281 98.933594 210.949219 99.496094 210.949219 L 100.035156 210.40625 C 100.035156 209.863281 100.574219 209.863281 100.574219 209.324219 C 100.574219 208.78125 100.574219 208.78125 101.117188 208.238281 L 101.117188 205.53125 C 99.496094 199.554688 98.394531 193.035156 98.394531 186.515625 C 98.394531 179.996094 99.496094 173.496094 101.117188 167.515625 L 101.117188 164.789062 C 101.117188 164.246094 101.117188 164.246094 100.574219 163.707031 C 100.574219 163.164062 100.574219 163.164062 100.035156 162.621094 C 100.035156 162.082031 99.496094 162.082031 99.496094 162.082031 C 99.496094 162.082031 98.933594 161.539062 98.394531 161.539062 L 97.851562 161.539062 L 81.058594 151.769531 L 94.609375 128.417969 L 111.402344 138.1875 L 111.945312 138.1875 C 112.484375 138.1875 112.484375 138.1875 113.023438 138.730469 L 116.289062 138.730469 C 116.828125 138.730469 116.828125 138.730469 117.371094 138.1875 C 117.910156 138.1875 117.910156 137.648438 118.449219 137.648438 L 118.992188 137.648438 C 128.199219 128.417969 139.589844 121.898438 152.039062 118.628906 L 152.597656 118.628906 C 153.140625 118.628906 153.140625 118.085938 153.679688 118.085938 C 154.21875 118.085938 154.21875 117.546875 154.761719 117.546875 L 155.300781 117.003906 C 155.300781 116.464844 155.839844 116.464844 155.839844 115.921875 C 155.839844 115.378906 155.839844 115.378906 156.382812 114.839844 L 156.382812 93.652344 L 182.945312 93.652344 L 182.945312 114.839844 C 182.945312 115.378906 182.945312 115.378906 183.484375 115.921875 C 183.484375 116.464844 184.027344 116.464844 184.027344 117.003906 C 184.027344 117.546875 184.566406 117.546875 184.566406 117.546875 C 184.566406 117.546875 185.105469 118.085938 185.648438 118.085938 C 186.1875 118.085938 186.1875 118.628906 186.726562 118.628906 L 187.269531 118.628906 C 199.738281 121.898438 211.128906 128.417969 220.335938 137.648438 C 221.417969 138.730469 223.039062 139.273438 224.121094 139.273438 C 225.742188 139.273438 226.820312 138.730469 227.902344 137.648438 C 230.085938 135.480469 230.085938 132.210938 227.902344 130.042969 C 218.714844 120.273438 206.785156 113.214844 194.3125 109.402344 L 194.3125 88.757812 C 194.3125 85.507812 192.152344 83.34375 188.890625 83.34375 L 151.519531 83.34375 C 148.253906 83.34375 146.09375 85.507812 146.09375 88.757812 L 146.09375 109.402344 C 134.703125 113.214844 124.414062 119.171875 115.207031 127.316406 L 97.3125 117.003906 C 96.230469 116.464844 94.609375 115.921875 92.988281 116.464844 C 91.347656 117.003906 90.265625 117.546875 89.726562 119.171875 L 70.769531 151.769531 C 69.148438 154.476562 70.230469 157.726562 72.929688 159.371094 L 90.804688 169.683594 C 89.726562 175.660156 88.644531 181.640625 88.644531 187.597656 C 88.644531 193.574219 89.183594 199.554688 90.804688 205.53125 L 72.929688 215.84375 C 70.230469 217.46875 69.6875 220.738281 70.769531 223.445312 L 89.726562 256.023438 C 90.265625 257.128906 91.886719 258.210938 92.988281 258.753906 L 94.609375 258.753906 C 95.691406 258.753906 96.230469 258.753906 97.3125 258.210938 L 115.207031 247.878906 C 123.875 256.023438 134.703125 262.003906 146.09375 265.8125 L 146.09375 286.4375 C 146.09375 289.707031 148.253906 291.871094 151.519531 291.871094 L 188.890625 291.871094 C 192.152344 291.871094 194.3125 289.707031 194.3125 286.4375 L 194.3125 261.460938 C 193.773438 257.128906 191.070312 254.398438 188.347656 254.398438 " fill-opacity="1" fill-rule="nonzero"/></g><path fill="#dc8b27" d="M 169.394531 216.925781 C 152.597656 216.925781 139.046875 203.34375 139.046875 186.515625 C 139.046875 169.683594 152.597656 156.101562 169.394531 156.101562 C 186.1875 156.101562 199.738281 169.683594 199.738281 186.515625 C 199.738281 203.34375 186.1875 216.925781 169.394531 216.925781 Z M 169.394531 145.25 C 146.632812 145.25 128.199219 163.707031 128.199219 186.515625 C 128.199219 209.324219 146.632812 227.777344 169.394531 227.777344 C 192.152344 227.777344 210.566406 209.324219 210.566406 186.515625 C 210.566406 163.707031 192.152344 145.25 169.394531 145.25 " fill-opacity="1" fill-rule="nonzero"/><g clip-path="url(#id2)"><path fill="#dc8b27" d="M 216.53125 247.878906 L 241.996094 258.210938 L 220.855469 273.957031 Z M 250.121094 249.523438 L 216.53125 235.945312 L 254.464844 140.355469 L 288.054688 153.9375 Z M 268.558594 119.171875 C 272.902344 117.003906 277.765625 117.003906 282.648438 119.171875 C 286.972656 120.816406 290.777344 124.609375 292.398438 128.960938 C 294.558594 133.292969 294.558594 138.1875 292.398438 143.082031 L 291.855469 144.167969 L 258.269531 130.585938 L 258.789062 129.503906 C 260.429688 124.609375 264.214844 121.359375 268.558594 119.171875 Z M 286.433594 108.859375 C 279.386719 106.152344 271.257812 106.152344 264.214844 109.402344 C 257.167969 112.671875 251.742188 118.085938 248.5 125.148438 L 245.796875 131.128906 L 204.0625 237.027344 C 204.0625 237.570312 203.523438 238.109375 203.523438 238.652344 L 203.523438 239.734375 L 211.648438 283.726562 C 212.1875 285.351562 213.269531 286.976562 214.910156 288.0625 C 215.453125 288.0625 215.992188 288.625 217.074219 288.625 C 218.152344 288.625 219.234375 288.0625 220.335938 287.519531 L 256.085938 260.917969 L 256.625 260.378906 C 256.625 260.378906 257.167969 260.378906 257.167969 259.835938 C 257.726562 259.292969 257.726562 258.753906 257.726562 258.210938 L 302.144531 146.332031 C 304.867188 139.273438 304.867188 131.128906 301.605469 124.066406 C 298.363281 117.003906 293.476562 111.566406 286.433594 108.859375 " fill-opacity="1" fill-rule="nonzero"/></g></svg>