<svg xmlns="http://www.w3.org/2000/svg" xmlns:xlink="http://www.w3.org/1999/xlink" width="500" zoomAndPan="magnify" viewBox="0 0 375 374.999991" height="500" preserveAspectRatio="xMidYMid meet" version="1.0"><defs><clipPath id="id1"><path d="M 107 107 L 299.539062 107 L 299.539062 299.800781 L 107 299.800781 Z M 107 107 " clip-rule="nonzero"/></clipPath><clipPath id="id2"><path d="M 75.550781 75.550781 L 192 75.550781 L 192 192 L 75.550781 192 Z M 75.550781 75.550781 " clip-rule="nonzero"/></clipPath></defs><rect x="-37.5" width="450" fill="#ffffff" y="-37.499999" height="449.999989" fill-opacity="1"/><rect x="-37.5" width="450" fill="#ffffff" y="-37.499999" height="449.999989" fill-opacity="1"/><rect x="-37.5" width="450" fill="#ffffff" y="-37.499999" height="449.999989" fill-opacity="1"/><path fill="#939593" d="M 187.5 370.882812 C 86.386719 370.882812 4.125 288.613281 4.125 187.5 C 4.125 86.382812 86.386719 4.121094 187.5 4.121094 C 288.613281 4.121094 370.878906 86.382812 370.878906 187.5 C 370.878906 288.613281 288.613281 370.882812 187.5 370.882812 Z M 187.5 0 C 84.113281 0 0 84.113281 0 187.5 C 0 290.886719 84.113281 375 187.5 375 C 290.886719 375 375 290.886719 375 187.5 C 375 84.113281 290.886719 0 187.5 0 " fill-opacity="1" fill-rule="nonzero"/><g clip-path="url(#id1)"><path fill="#dc8b27" d="M 158.105469 229.324219 C 170.449219 229.324219 179.191406 217.777344 177.378906 207.484375 L 200.015625 207.484375 L 200.015625 229.582031 C 190.757812 231.394531 183.808594 239.617188 183.808594 249.652344 C 183.808594 259.683594 190.757812 267.90625 200.015625 269.699219 L 200.015625 291.578125 L 115.921875 291.578125 L 115.921875 207.484375 L 138.816406 207.484375 C 138.296875 221.359375 147.8125 229.324219 158.105469 229.324219 Z M 201.824219 262.253906 C 195.914062 261.21875 191.535156 256.082031 191.535156 249.652344 C 191.535156 243.21875 195.914062 238.082031 201.824219 237.046875 C 205.171875 236.53125 207.738281 233.445312 207.738281 230.121094 L 207.738281 207.484375 L 230.355469 207.484375 C 233.957031 207.484375 236.785156 204.914062 237.304688 201.550781 C 238.339844 195.660156 243.476562 191.277344 249.90625 191.277344 C 256.335938 191.277344 261.472656 195.660156 262.507812 201.550781 C 263.023438 204.914062 265.851562 207.484375 269.457031 207.484375 L 291.832031 207.484375 L 291.832031 291.578125 L 207.738281 291.578125 L 207.738281 269.199219 C 207.738281 265.855469 205.171875 262.769531 201.824219 262.253906 Z M 229.597656 157.851562 C 229.597656 147.816406 221.875 138.042969 207.738281 138.300781 L 207.738281 115.40625 L 291.832031 115.40625 L 291.832031 199.5 L 269.972656 199.5 C 268.160156 190.242188 259.9375 183.296875 249.90625 183.296875 C 239.871094 183.296875 231.648438 190.242188 229.855469 199.5 L 207.738281 199.5 L 207.738281 177.125 C 218.011719 178.933594 229.597656 170.195312 229.597656 157.851562 Z M 292.847656 107.960938 L 206.703125 107.960938 C 203.101562 107.960938 200.015625 110.789062 200.015625 114.628906 L 200.015625 139.835938 C 200.015625 143.957031 203.875 146.523438 207.222656 146.265625 C 214.925781 145.769531 219.566406 149.09375 221.097656 153.988281 C 224.441406 163.507812 215.445312 171.46875 207.738281 169.417969 C 203.617188 168.382812 199.753906 171.210938 199.753906 175.332031 L 199.753906 199.757812 L 175.328125 199.757812 C 171.207031 199.757812 168.121094 203.621094 169.414062 207.722656 C 171.464844 215.449219 163.503906 224.1875 153.984375 221.101562 C 149.605469 219.570312 146.261719 215.449219 146.261719 209.792969 C 146.261719 207.226562 146.777344 205.414062 145.246094 203.363281 C 143.953125 201.292969 142.160156 200.019531 139.851562 200.019531 L 114.648438 200.019531 C 111.042969 200.019531 107.957031 202.84375 107.957031 206.707031 L 107.957031 293.109375 C 107.957031 296.714844 110.785156 299.800781 114.648438 299.800781 C 119.523438 299.800781 295.4375 299.800781 292.847656 299.800781 C 296.453125 299.800781 299.539062 296.972656 299.539062 293.109375 L 299.539062 114.890625 C 299.539062 110.789062 296.710938 107.960938 292.847656 107.960938 " fill-opacity="1" fill-rule="nonzero"/></g><g clip-path="url(#id2)"><path fill="#dc8b27" d="M 183.808594 125.183594 C 183.808594 131.613281 179.449219 136.75 173.535156 137.785156 C 170.191406 138.300781 167.625 141.386719 167.625 144.734375 L 167.625 167.367188 L 144.988281 167.367188 C 141.382812 167.367188 138.558594 169.9375 138.039062 173.28125 C 137.003906 179.195312 131.867188 183.554688 125.4375 183.554688 C 119.007812 183.554688 113.871094 179.195312 112.835938 173.28125 C 112.316406 169.9375 109.492188 167.367188 105.886719 167.367188 L 83.53125 167.367188 L 83.53125 83.273438 L 167.625 83.273438 L 167.625 105.632812 C 167.625 109.234375 170.191406 112.0625 173.535156 112.582031 C 179.449219 113.355469 183.808594 118.75 183.808594 125.183594 Z M 105.371094 175.074219 C 107.179688 184.332031 115.402344 191.277344 125.4375 191.277344 C 135.472656 191.277344 143.691406 184.332031 145.503906 175.074219 L 168.898438 175.074219 C 172.5 175.074219 175.585938 172.246094 175.585938 168.382812 L 175.585938 144.992188 C 184.84375 143.179688 191.792969 134.957031 191.792969 124.921875 C 191.792969 114.890625 184.84375 106.667969 175.585938 104.875 L 175.585938 82.238281 C 175.585938 78.636719 172.757812 75.550781 168.898438 75.550781 L 82.496094 75.550781 C 78.890625 75.550781 75.804688 78.378906 75.804688 82.238281 L 75.804688 168.644531 C 75.804688 172.246094 78.632812 175.332031 82.496094 175.332031 L 105.371094 175.074219 " fill-opacity="1" fill-rule="nonzero"/></g></svg>